<?xml version="1.0" standalone="no"?> <!DOCTYPE svg PUBLIC "-//W3C//DTD SVG 1.0//EN" "http://www.w3.org/TR/2001/REC-SVG-20010904/DTD/svg10.dtd" > <svg xmlns="http://www.w3.org/2000/svg" width="100%" height="100%">
<defs >
<font id="couriernew" horiz-adv-x="1229" ><font-face
    font-family="CourierNewPSMT"
    units-per-em="2048"
    panose-1="2 7 3 9 2 2 5 2 4 4"
    ascent="1705"
    descent="-615"
    alphabetic="0" />
<missing-glyph d="M103 0V1280H1127V0H103ZM135 32H1095V1248H135V32Z" />
<glyph unicode=" " glyph-name="space" />
<glyph unicode="!" glyph-name="exclam" d="M695 1170L657 492Q655 460 644 447T615 434Q597 434 586 447T572 492L535 1170Q533 1194 533 1205Q533 1239 556 1262T615 1285Q650 1285 673 1262T696 1204Q696 1194 695 1170ZM595 178H634Q677 178 707 148T738 74Q738
30 707 0T634 -30H595Q552 -30 522 0T491 73Q491 118 522 148T595 178Z" />
<glyph unicode="&quot;" glyph-name="quotedbl" d="M266 1234H532L462 748Q456 710 440 695T399 679Q374 679 358 694T336 748L266 1234ZM695 1234H961L891 748Q885 710 869 695T829 679Q803 679 787 694T766 748L695 1234Z" />
<glyph unicode="#" glyph-name="numbersign" d="M800 740L782 476H943Q973 476 986 465T999 434Q999 415 986 404T943 392H776L743 -76Q741 -106 730 -118T701 -130L684 -126Q659 -111 659 -85V-70L692 392H502L470 -76Q468 -106 456 -118T428 -130L410 -126Q385
-111 385 -85L386 -70L418 392H243Q213 392 200 403T187 434Q187 453 200 464T243 476H424L442 740H286Q255 740 242 751T229 782Q229 801 242 812T286 824H448L481 1292Q483 1321 495 1333T523 1346L541 1342Q566 1326 566 1302L565 1286L533 824H722L755 1292Q757
1321 768 1333T797 1346L814 1342Q840 1326 840 1302L839 1286L806 824H985Q1015 824 1028 813T1041 782Q1041 763 1028 752T985 740H800ZM716 740H527L508 476H698L716 740Z" />
<glyph unicode="$" glyph-name="dollar" d="M571 1198V1304Q571 1335 582 1348T613 1361Q632 1361 643 1348T655 1304V1198Q723 1192 767 1177T871 1121Q872 1146 884 1158T913 1170Q932 1170 944 1157T956 1114V989Q956 959 944 946T913 933Q897 933 886 943T871
979Q865 1026 809 1064Q727 1118 616 1118Q503 1118 430 1052T356 903Q356 820 421 776Q470 742 627 713T841 657Q921 622 960 562T1000 417Q1000 303 911 217T655 113V-134Q655 -165 644 -178T613 -191Q594 -191 583 -178T571 -134V113Q417 123 312 213Q312 169
309 160T294 143T270 135Q252 135 240 148T228 191V355Q228 385 239 398T270 412Q288 412 301 399Q310 390 312 359Q318 306 397 251T613 195Q754 195 835 262T916 418Q916 477 886 519T792 588Q750 605 616 630Q422 668 347 728Q271 788 271 904Q271 1012 353
1097T571 1198Z" />
<glyph unicode="%" glyph-name="percent" d="M742 1016Q742 908 667 832T486 756Q380 756 305 832T230 1016Q230 1124 305 1199T486 1275Q592 1275 667 1200T742 1016ZM682 1016Q682 1099 625 1157T486 1215Q405 1215 348 1157T290 1016Q290 933 347 875T486 817Q567
817 624 875T682 1016ZM1014 725L236 472Q222 468 215 468Q204 468 196 477T187 498Q187 508 194 518Q199 524 217 530L995 783Q1009 787 1017 787Q1027 787 1035 778T1044 757Q1044 747 1037 737Q1032 731 1014 725ZM1001 235Q1001 127 926 52T744 -24Q639 -24
564 52T488 235Q488 343 563 419T744 495Q850 495 925 419T1001 235ZM940 235Q940 319 883 376T744 434Q663 434 606 376T548 235Q548 153 605 95T744 36Q825 36 882 94T940 235Z" />
<glyph unicode="&amp;" glyph-name="ampersand" d="M852 0L788 99Q698 -33 556 -33Q436 -33 345 62T254 294Q254 400 315 482T485 596Q411 715 397 752T382 830Q382 929 457 1003T637 1078Q671 1078 705 1068T773 1037Q816 1059 826 1059Q843 1059 855 1047T868
1016Q868 1004 861 994T833 973L768 938Q737 966 705 979T638 993Q569 993 518 942T466 828Q466 763 556 620L788 251Q849 366 884 517H966Q996 517 1009 505T1022 475Q1022 462 1015 451T997 436T948 432Q900 263 838 170L895 84H966Q996 84 1009 73T1022 42Q1022
24 1009 12T966 0H852ZM521 522Q437 502 388 441T338 294Q338 193 404 122T554 51Q666 51 739 177L521 522Z" />
<glyph unicode="&apos;" glyph-name="quotesingle" d="M481 1255H747L677 730Q671 688 655 672T614 655Q589 655 573 671T551 730L481 1255Z" />
<glyph unicode="(" glyph-name="parenleft" d="M605 498Q605 613 635 742T750 1040T874 1244Q886 1255 900 1255Q918 1255 930 1243T943 1214Q943 1204 936 1192Q826 990 779 826T732 498Q732 333 779 169T936 -196Q943 -208 943 -218Q943 -235 931 -247T900 -260Q886
-260 874 -249Q837 -215 753 -50T637 242T605 498Z" />
<glyph unicode=")" glyph-name="parenright" d="M639 497Q639 382 609 254T494 -44T370 -248Q358 -260 344 -260Q326 -260 314 -248T301 -218Q301 -208 308 -196Q418 5 465 169T512 497Q512 662 465 826T308 1192Q301 1204 301 1214Q301 1231 313 1243T344 1255Q358
1255 370 1244Q407 1210 491 1045T607 753T639 497Z" />
<glyph unicode="*" glyph-name="asterisk" d="M568 911V1198Q568 1229 580 1242T611 1255Q629 1255 641 1242T653 1198V911L926 1000Q945 1006 955 1006Q971 1006 983 994T995 964Q995 949 987 938T952 919L679 830L848 598Q864 575 864 562Q864 544 852 532T822
519Q800 519 779 548L610 781L441 548Q420 519 399 519Q381 519 369 531T356 562Q356 575 373 598L542 830L268 920Q243 928 235 938T226 964Q226 981 238 993T265 1006Q276 1006 295 1000L568 911Z" />
<glyph unicode="+" glyph-name="plus" d="M657 543V123Q657 93 645 80T614 67Q596 67 584 80T572 123V543H200Q170 543 157 554T144 585Q144 604 157 615T200 627H572V1045Q572 1075 584 1088T615 1101Q633 1101 645 1088T657 1045V627H1029Q1059 627 1072 616T1085
585Q1085 566 1072 555T1029 543H657Z" />
<glyph unicode="," glyph-name="comma" d="M448 302H721L424 -250Q397 -300 359 -300Q334 -300 317 -283T299 -240Q299 -230 302 -218L448 302Z" />
<glyph unicode="-" glyph-name="hyphen" d="M1043 639V519H186V639H1043Z" />
<glyph unicode="." glyph-name="period" d="M597 241H633Q689 241 729 202T769 106Q769 48 729 9T633 -30H597Q541 -30 501 9T461 105Q461 163 501 202T597 241Z" />
<glyph unicode="/" glyph-name="slash" d="M992 1316L316 -132Q299 -169 272 -169Q255 -169 243 -157T230 -129Q230 -117 240 -96L915 1352Q926 1375 936 1382T960 1389Q977 1389 989 1377T1002 1349Q1002 1338 992 1316Z" />
<glyph unicode="0" glyph-name="zero" d="M1000 731V523Q1000 252 871 94Q770 -30 616 -30Q542 -30 477 -1T365 82Q336 115 302 188T252 322Q229 408 229 523V731Q229 1003 358 1161Q459 1285 613 1285Q688 1285 753 1256T864 1173Q894 1139 928 1066T978 933Q1000
847 1000 731ZM916 720Q916 839 883 941T807 1105Q782 1140 742 1165Q685 1200 614 1200Q473 1200 393 1056T313 720V535Q313 416 346 313T423 149Q447 115 487 90Q544 54 616 54Q756 54 836 198T916 535V720Z" />
<glyph unicode="1" glyph-name="one" d="M656 1272V84H944Q974 84 987 73T1000 42Q1000 24 987 12T944 0H284Q254 0 241 12T228 42Q228 61 241 72T284 84H572V1156L298 1070Q278 1064 269 1064Q254 1064 242 1076T229 1106Q229 1121 239 1134Q247 1142 272 1151L656
1272Z" />
<glyph unicode="2" glyph-name="two" d="M253 84H898V117Q898 147 910 160T941 173Q959 173 971 160T983 117V0H171V124Q427 354 669 592Q782 703 824 755T881 846T897 926Q897 1034 810 1117T600 1200Q490 1200 405 1137T295 981Q289 957 280 950Q268 940 252
940Q235 940 224 951T212 979Q212 1027 264 1109T409 1238T599 1285Q756 1285 869 1176T982 929Q982 871 963 823T899 717T735 543Q439 251 253 90V84Z" />
<glyph unicode="3" glyph-name="three" d="M787 683Q903 631 964 541T1025 352Q1025 201 903 86T596 -30Q488 -30 372 16T210 110Q195 126 195 144Q195 160 206 172T234 184Q250 184 270 169Q425 54 598 54Q744 54 842 145T941 349Q941 424 893 496T753 609T569
651Q539 651 526 662T513 693Q513 711 525 723T563 735L635 734Q748 734 821 803T895 963Q895 1057 818 1129T617 1201Q530 1201 457 1171T340 1089Q324 1069 316 1065T296 1060Q279 1060 267 1071T255 1099Q255 1139 342 1200Q463 1285 617 1285Q776 1285 878
1190T980 962Q980 878 931 803T787 683Z" />
<glyph unicode="4" glyph-name="four" d="M771 351H214V448L681 1255H856V435H926Q957 435 970 424T983 393Q983 375 970 363T926 351H856V84H926Q957 84 970 73T983 42Q983 24 970 12T926 0H614Q583 0 570 12T557 42Q557 61 570 72T614 84H771V351ZM771 435V1170H727L302
435H771Z" />
<glyph unicode="5" glyph-name="five" d="M383 1170V759Q457 790 525 805T654 821Q812 821 918 710T1025 418Q1025 218 905 94T605 -30Q486 -30 376 23Q298 60 234 115Q196 148 196 170Q196 188 208 200T236 213Q253 213 272 195Q423 54 601 54Q748 54 844 154T940
422Q940 564 857 650T646 737Q515 737 384 668Q352 652 339 652Q321 652 310 664T299 698V1255H885Q915 1255 928 1243T941 1212Q941 1194 928 1182T885 1170H383Z" />
<glyph unicode="6" glyph-name="six" d="M364 531Q442 646 524 701T708 756Q842 756 946 645T1050 369Q1050 219 955 95T693 -30Q584 -30 490 37T341 243Q274 416 274 626Q274 784 337 920Q385 1025 465 1104T651 1234T882 1285Q966 1285 1022 1251Q1046 1236
1046 1211Q1046 1193 1035 1182T1007 1170Q994 1170 976 1180Q935 1200 874 1200Q679 1200 519 1033T358 634Q358 601 364 531ZM383 392Q421 210 502 132T695 54Q807 54 886 141T966 369Q966 500 886 586T705 672Q608 672 518 589Q458 534 383 392Z" />
<glyph unicode="7" glyph-name="seven" d="M897 1132V1170H295V1096Q295 1066 284 1053T253 1040Q235 1040 223 1053T211 1096V1255H982V1121L644 41Q636 15 625 7T600 -2Q582 -2 570 10T558 38Q558 48 564 66L897 1132Z" />
<glyph unicode="8" glyph-name="eight" d="M787 651Q892 600 945 517T999 337Q999 188 887 79T615 -30Q455 -30 343 79T231 337Q231 432 284 515T444 651Q352 704 310 761Q252 842 252 940Q252 1078 358 1181T615 1285Q766 1285 872 1182T978 940Q978 842 920
762Q879 704 787 651ZM892 937Q892 1045 812 1122T614 1200Q498 1200 418 1122T337 938Q337 840 416 767T614 693Q733 693 812 766T892 937ZM915 335Q915 446 829 528T615 610Q487 610 401 528T315 336Q315 222 401 138T615 54Q742 54 828 138T915 335Z" />
<glyph unicode="9" glyph-name="nine" d="M959 710Q894 595 805 537T621 479Q534 479 453 529T323 675T275 878Q275 1032 370 1158T626 1285Q740 1285 834 1214T980 1008Q1047 835 1047 606Q1047 428 990 310Q952 230 879 155T713 33Q587 -30 451 -30Q361 -30
304 4Q278 20 278 44Q278 61 290 72T319 84Q331 84 354 73Q393 54 444 54Q657 54 810 207T963 592Q963 634 959 710ZM943 850Q890 1053 812 1126T628 1200Q521 1200 440 1110T359 879Q359 742 440 653T623 563Q682 563 739 595T848 691Q881 734 943 850Z" />
<glyph unicode=":" glyph-name="colon" d="M597 866H633Q689 866 729 826T769 731Q769 672 729 633T633 594H597Q541 594 501 634T461 729Q461 788 501 827T597 866ZM597 241H633Q689 241 729 202T769 106Q769 48 729 9T633 -30H597Q541 -30 501 9T461 105Q461
163 501 202T597 241Z" />
<glyph unicode=";" glyph-name="semicolon" d="M596 866H633Q689 866 728 826T768 731Q768 672 728 633T633 594H596Q540 594 501 634T461 729Q461 788 501 827T596 866ZM450 302H714L431 -162Q410 -196 398 -205T368 -214Q344 -214 328 -199T312 -163Q312 -151
318 -132L450 302Z" />
<glyph unicode="&lt;" glyph-name="less" d="M98 583L1006 1089Q1028 1101 1039 1101Q1056 1101 1068 1089T1081 1059Q1081 1034 1047 1015L269 583L1046 151Q1080 132 1080 107Q1080 90 1068 78T1038 65Q1027 65 1005 77L98 583Z" />
<glyph unicode="=" glyph-name="equal" d="M1073 695H157Q127 695 114 707T101 738Q101 756 114 768T157 780H1073Q1103 780 1116 768T1129 737Q1129 719 1116 707T1073 695ZM1073 394H157Q127 394 114 405T101 436Q101 455 114 466T157 478H1073Q1103 478 1116
467T1129 436Q1129 417 1116 406T1073 394Z" />
<glyph unicode="&gt;" glyph-name="greater" d="M1131 583L223 77Q201 65 190 65Q173 65 161 77T148 107Q148 132 182 151L960 583L183 1015Q149 1034 149 1059Q149 1076 161 1088T191 1101Q202 1101 224 1089L1131 583Z" />
<glyph unicode="?" glyph-name="question" d="M660 514V429Q660 399 648 386T618 373Q599 373 587 386T575 429V570Q794 651 874 732Q919 777 919 845Q919 957 838 1036T626 1116Q560 1116 502 1101T359 1045V959Q359 929 348 916T317 903Q299 903 287 916T275
959V1100Q431 1169 477 1181Q555 1200 633 1200Q800 1200 901 1100T1003 847Q1003 753 943 681T660 514ZM574 178H658Q702 178 732 148T763 74Q763 30 732 0T658 -30H574Q531 -30 501 0T470 73Q470 118 501 148T574 178Z" />
<glyph unicode="@" glyph-name="at" d="M859 302V313Q834 309 813 307T774 305Q651 305 573 381T494 565Q494 688 591 776T859 865V962Q859 1072 791 1142T621 1212Q550 1212 487 1176Q444 1151 416 1115Q368 1052 334 964T299 744V413Q299 219 388 87T630 -46Q780
-46 855 25Q872 41 888 41Q905 41 917 29T929 1Q929 -31 869 -69Q773 -130 618 -130Q538 -130 472 -101T360 -19Q332 12 293 87T238 220Q215 301 215 413V749Q215 1005 351 1167Q459 1297 617 1297Q699 1297 768 1263T890 1148T943 962V386Q963 384 973 373T983
345Q983 332 977 322T961 307T927 302H859ZM859 782Q727 781 653 716T578 567Q578 491 632 440T785 389Q802 389 820 391T859 398V782Z" />
<glyph unicode="A" glyph-name="A" d="M891 391H339L226 84H387Q417 84 430 73T443 42Q443 24 430 12T387 0H73Q43 0 30 12T17 42Q17 61 30 72T73 84H138L509 1086H261Q231 1086 218 1097T205 1128Q205 1147 218 1158T261 1170H684L1094 84H1159Q1189 84 1202
73T1215 42Q1215 24 1202 12T1159 0H846Q815 0 802 12T789 42Q789 61 802 72T846 84H1006L891 391ZM859 475L627 1086H596L371 475H859Z" />
<glyph unicode="B" glyph-name="B" d="M256 84V1086H143Q113 1086 100 1097T87 1128Q87 1147 100 1158T143 1170H671Q828 1170 926 1080T1025 867Q1025 713 860 618Q991 571 1052 493T1113 321Q1113 237 1073 168T951 49T771 0H143Q113 0 100 12T87 42Q87 61 100
72T143 84H256ZM340 650H637Q732 650 811 685Q872 713 906 766T940 874Q940 953 866 1019T673 1086H340V650ZM340 84H765Q846 84 906 120T997 209T1028 319Q1028 383 984 443T860 534T642 565H340V84Z" />
<glyph unicode="C" glyph-name="C" d="M984 1055V1114Q984 1144 995 1157T1026 1170Q1045 1170 1056 1157T1068 1114V881Q1068 850 1057 837T1026 824Q1009 824 998 836T984 875Q979 959 893 1024Q777 1113 629 1113Q532 1113 446 1070Q382 1039 344 994Q278 916
239 821Q211 751 211 663V516Q211 328 347 190T663 51Q771 51 856 98T1022 240Q1039 261 1060 261Q1078 261 1089 250T1100 222Q1100 199 1057 152Q975 60 873 14T665 -33Q574 -33 480 2Q408 29 361 65T246 186T152 344T127 504V675Q127 799 193 928T375 1127T626
1197Q834 1197 984 1055Z" />
<glyph unicode="D" glyph-name="D" d="M285 84V1086H214Q184 1086 171 1097T158 1128Q158 1147 171 1158T214 1170H666Q772 1170 859 1126T993 1026Q1072 931 1113 825Q1142 748 1142 643V527Q1142 398 1085 277T895 66Q796 0 666 0H214Q184 0 171 12T158 42Q158
61 171 72T214 84H285ZM369 84H674Q780 84 872 153T1011 318T1058 509V661Q1058 739 1033 800Q997 889 931 969Q895 1013 825 1049T674 1086H369V84Z" />
<glyph unicode="E" glyph-name="E" d="M341 565V84H987V332Q987 362 998 375T1029 388Q1048 388 1059 375T1071 332V0H144Q114 0 101 12T88 42Q88 61 101 72T144 84H257V1086H144Q114 1086 101 1097T88 1128Q88 1147 101 1158T144 1170H1027V881Q1027 851 1016
838T985 825Q966 825 955 838T943 881V1086H341V649H642V744Q642 774 654 787T685 800Q703 800 715 787T727 744V470Q727 440 715 427T685 414Q666 414 654 427T642 470V565H341Z" />
<glyph unicode="F" glyph-name="F" d="M412 565V84H700Q730 84 743 73T756 42Q756 24 743 12T700 0H215Q185 0 172 12T159 42Q159 61 172 72T215 84H328V1086H215Q185 1086 172 1097T159 1128Q159 1147 174 1160Q185 1170 215 1170H1140V881Q1140 851 1128 838T1098
825Q1079 825 1067 838T1055 881V1086H412V649H713V744Q713 774 725 787T756 800Q774 800 786 787T798 744V470Q798 440 786 427T756 414Q737 414 725 427T713 470V565H412Z" />
<glyph unicode="G" glyph-name="G" d="M1071 434V74Q975 21 880 -6T689 -33Q554 -33 452 7T278 119T168 280T128 506V660Q128 798 196 928T384 1128T643 1197Q846 1197 986 1086Q986 1135 989 1145T1004 1162T1029 1170Q1047 1170 1059 1157T1071 1114V924Q1071
893 1059 881T1029 868Q1012 868 1001 879T988 920Q982 1005 878 1059T650 1113Q534 1113 441 1063T266 870Q212 777 212 659V506Q212 297 340 174T693 51Q769 51 834 67T986 123V434H697Q667 434 654 445T641 476Q641 495 654 507T697 519L1101 518Q1131 518 1144
507T1157 476Q1157 463 1149 452T1131 438T1071 434Z" />
<glyph unicode="H" glyph-name="H" d="M899 566H342V84H455Q485 84 498 73T511 42Q511 24 498 12T455 0H163Q133 0 120 12T107 42Q107 61 120 72T163 84H258V1086H206Q175 1086 162 1097T149 1128Q149 1147 162 1158T206 1170H455Q485 1170 498 1159T511 1128Q511
1109 498 1098T455 1086H342V650H899V1086H787Q757 1086 744 1097T731 1128Q731 1147 743 1158T787 1170H1036Q1067 1170 1080 1159T1093 1128Q1093 1109 1080 1098T1036 1086H984V84H1079Q1109 84 1122 73T1135 42Q1135 24 1122 12T1079 0H787Q757 0 744 12T731
42Q731 61 743 72T787 84H899V566Z" />
<glyph unicode="I" glyph-name="I" d="M657 1086V84H945Q975 84 988 73T1001 42Q1001 24 988 12T945 0H285Q255 0 242 12T229 42Q229 61 242 72T285 84H573V1086H285Q255 1086 242 1097T229 1128Q229 1147 242 1158T285 1170H945Q975 1170 988 1159T1001 1128Q1001
1109 988 1098T945 1086H657Z" />
<glyph unicode="J" glyph-name="J" d="M943 1086V344Q943 191 829 79T557 -33Q462 -33 371 10T171 153V463Q171 493 183 506T213 519Q232 519 244 506T256 463L255 193Q332 122 407 87T557 51Q639 51 712 91Q767 121 812 192T858 344V1086H529Q498 1086 485 1097T472
1128Q472 1147 485 1158T529 1170H1143Q1173 1170 1186 1159T1199 1128Q1199 1109 1186 1098T1143 1086H943Z" />
<glyph unicode="K" glyph-name="K" d="M342 458V84H497Q528 84 541 73T554 42Q554 24 541 12T497 0H145Q115 0 102 12T89 42Q89 61 102 72T145 84H258V1086H145Q115 1086 102 1097T89 1128Q89 1147 102 1158T145 1170H497Q528 1170 541 1159T554 1128Q554 1109
541 1098T497 1086H342V569L922 1086H830Q799 1086 786 1097T773 1128Q773 1147 786 1158T830 1170H1077Q1107 1170 1120 1159T1133 1128Q1133 1109 1120 1098T1077 1086H1043L581 673Q684 631 752 568T883 389Q919 324 1015 84H1120Q1151 84 1164 73T1177 42Q1177
24 1164 12T1120 0H958Q826 361 736 464T511 610L342 458Z" />
<glyph unicode="L" glyph-name="L" d="M469 1086V84H1027V418Q1027 448 1039 461T1070 474Q1088 474 1100 462T1112 418V0H184Q154 0 141 12T128 42Q128 61 141 72T184 84H384V1086H184Q154 1086 141 1097T128 1128Q128 1147 141 1158T184 1170H669Q699 1170 712
1159T725 1128Q725 1109 712 1098T669 1086H469Z" />
<glyph unicode="M" glyph-name="M" d="M670 351H574L251 1086H235V84H390Q420 84 433 73T446 42Q446 24 433 12T390 0H80Q50 0 37 12T24 42Q24 61 37 72T80 84H151V1086H98Q68 1086 55 1097T42 1128Q42 1147 55 1158T98 1170H304L622 446L935 1170H1141Q1172 1170
1185 1159T1198 1128Q1198 1109 1185 1098T1141 1086H1089V84H1159Q1190 84 1203 73T1216 42Q1216 24 1203 12T1159 0H850Q820 0 807 12T793 42Q793 61 806 72T850 84H1005V1086H987L670 351Z" />
<glyph unicode="N" glyph-name="N" d="M1026 0H918L299 1047V84H454Q485 84 498 73T511 42Q511 24 498 12T454 0H145Q114 0 101 12T88 42Q88 61 101 72T145 84H215V1086H102Q72 1086 59 1097T46 1128Q46 1147 59 1158T102 1170H322L942 121V1086H787Q757 1086
744 1097T731 1128Q731 1147 743 1158T787 1170H1097Q1127 1170 1140 1159T1153 1128Q1153 1109 1140 1098T1097 1086H1026V0Z" />
<glyph unicode="O" glyph-name="O" d="M1128 582Q1128 414 1060 271T873 47T616 -33Q413 -33 259 139T104 582Q104 853 258 1025T616 1197Q753 1197 872 1117T1059 894T1128 582ZM1043 582Q1043 787 924 950T616 1113Q439 1113 314 958T188 582Q188 348 319 200T616
51Q805 51 924 213T1043 582Z" />
<glyph unicode="P" glyph-name="P" d="M432 480V84H720Q750 84 763 73T776 42Q776 24 763 12T720 0H235Q205 0 192 12T179 42Q179 61 192 72T235 84H348V1086H235Q205 1086 192 1097T179 1128Q179 1147 192 1158T235 1170H723Q896 1170 1005 1068T1115 829Q1115
748 1080 683T994 581Q919 525 839 499Q781 480 695 480H432ZM432 564H700Q793 564 874 605T993 707T1031 829Q1031 928 946 1007T731 1086H432V564Z" />
<glyph unicode="Q" glyph-name="Q" d="M626 -33L514 -117Q597 -100 651 -100Q739 -100 824 -132Q884 -155 917 -155Q975 -155 1046 -108Q1074 -90 1086 -90Q1104 -90 1115 -101T1127 -132Q1127 -147 1117 -158Q1096 -182 1022 -214Q966 -239 912 -239Q870 -239
796 -212T653 -185Q604 -185 532 -197Q431 -214 370 -231Q350 -236 341 -236Q324 -236 312 -224T300 -192Q300 -172 323 -156L510 -21Q343 20 224 185T104 582Q104 853 258 1025T616 1197Q819 1197 973 1025T1128 582Q1128 315 976 143T626 -33ZM1043 582Q1043
787 924 950T616 1113Q439 1113 314 958T188 582Q188 348 319 200T616 51Q805 51 924 213T1043 582Z" />
<glyph unicode="R" glyph-name="R" d="M341 522V84H496Q527 84 540 73T553 42Q553 24 540 12T496 0H144Q114 0 101 12T88 42Q88 61 101 72T144 84H257V1086H144Q114 1086 101 1097T88 1128Q88 1147 101 1158T144 1170H652Q809 1170 916 1071T1024 846Q1024 756
958 677T735 544Q825 482 889 404T1094 84H1158Q1188 84 1201 73T1214 42Q1214 24 1201 12T1158 0H1046Q890 279 805 374T608 522H341ZM341 606H570Q680 606 769 646T899 740T940 850Q940 934 856 1010T650 1086H341V606Z" />
<glyph unicode="S" glyph-name="S" d="M915 1086V1114Q915 1144 926 1157T957 1170Q976 1170 987 1157T999 1114V900Q999 870 988 857T957 844Q939 844 928 856T915 895Q910 979 829 1046T615 1113Q476 1113 394 1042T312 873Q312 823 335 782T396 716T482 675T632
642Q803 614 868 585Q955 546 999 477T1044 314Q1044 170 929 69T619 -33Q400 -33 269 104V56Q269 26 258 13T227 0Q209 0 197 13T185 56V288Q185 319 196 332T227 345Q245 345 256 333T269 294Q274 202 367 127T619 51Q777 51 868 130T960 317Q960 383 925 434T821
516Q773 537 621 563Q412 598 320 670Q228 742 228 875Q228 1007 333 1102T612 1197Q788 1197 915 1086Z" />
<glyph unicode="T" glyph-name="T" d="M656 1086V84H874Q904 84 917 73T930 42Q930 24 917 12T874 0H353Q323 0 310 12T297 42Q297 61 310 72T353 84H571V1086H227V795Q227 764 216 751T185 738Q167 738 155 751T143 795V1170H1084V795Q1084 764 1073 751T1042
738Q1023 738 1012 751T1000 795V1086H656Z" />
<glyph unicode="U" glyph-name="U" d="M1021 1086V384Q1021 207 903 87T618 -33Q506 -33 419 16T271 164T210 384V1086H139Q109 1086 96 1097T83 1128Q83 1147 97 1160Q109 1170 139 1170H449Q479 1170 492 1159T505 1128Q505 1109 492 1098T449 1086H294V384Q294
245 389 148T614 51Q697 51 765 89T885 206T937 384V1086H782Q752 1086 739 1097T726 1128Q726 1147 739 1158T782 1170H1092Q1122 1170 1135 1159T1148 1128Q1148 1109 1135 1098T1092 1086H1021Z" />
<glyph unicode="V" glyph-name="V" d="M677 0H560L137 1086H72Q49 1086 39 1090T23 1105T16 1128Q16 1140 22 1150T39 1165T72 1170H385Q409 1170 418 1166T434 1151T441 1128Q441 1116 434 1106T418 1091T385 1086H224L614 84H620L1005 1086H845Q821 1086 811
1090T795 1105T788 1128Q788 1140 795 1150T811 1165T845 1170H1157Q1181 1170 1191 1166T1207 1151T1214 1128Q1214 1116 1207 1106T1191 1091T1157 1086H1093L677 0Z" />
<glyph unicode="W" glyph-name="W" d="M983 0H851L613 831L380 0H248L124 1086H93Q63 1086 50 1097T37 1128Q37 1147 50 1158T93 1170H405Q436 1170 449 1159T462 1128Q462 1109 449 1098T405 1086H209L320 96L547 911H676L909 96L1018 1086H821Q791 1086 778
1097T765 1128Q765 1147 778 1158T821 1170H1131Q1162 1170 1175 1159T1188 1128Q1188 1109 1175 1098T1131 1086H1100L983 0Z" />
<glyph unicode="X" glyph-name="X" d="M665 599L1064 84H1096Q1126 84 1139 73T1152 42Q1152 24 1139 12T1096 0H826Q796 0 783 12T770 42Q770 61 783 72T826 84H960L613 530L270 84H404Q434 84 447 73T460 42Q460 24 447 12T404 0H136Q106 0 93 12T80 42Q80 56
88 67T106 81T167 84L561 599L185 1086H154Q124 1086 111 1097T98 1128Q98 1147 111 1158T154 1170H383Q414 1170 427 1159T440 1128Q440 1109 427 1098T383 1086H289L613 667L935 1086H841Q810 1086 797 1097T784 1128Q784 1147 797 1158T841 1170H1071Q1101 1170
1114 1159T1127 1128Q1127 1109 1114 1098T1071 1086H1039L665 599Z" />
<glyph unicode="Y" glyph-name="Y" d="M659 528V84H877Q907 84 920 73T933 42Q933 24 920 12T877 0H356Q326 0 313 12T300 42Q300 61 312 72T356 84H574V528L205 1086H155Q125 1086 112 1097T99 1128Q99 1147 112 1158T155 1170H386Q416 1170 429 1159T442 1128Q442
1109 429 1098T386 1086H303L617 613L924 1086H842Q811 1086 798 1097T785 1128Q785 1147 798 1158T842 1170H1072Q1102 1170 1115 1159T1128 1128Q1128 1109 1115 1098T1072 1086H1022L659 528Z" />
<glyph unicode="Z" glyph-name="Z" d="M1022 0H213V122L895 1079V1086H336V839Q336 808 324 795T293 782Q275 782 263 795T251 839V1170H976V1051L294 93V84H938V377Q938 408 949 421T980 434Q999 434 1010 421T1022 377V0Z" />
<glyph unicode="[" glyph-name="bracketleft" d="M657 1170V-175H861Q891 -175 904 -186T917 -217Q917 -236 904 -247T861 -259H573V1255H861Q891 1255 904 1243T917 1212Q917 1194 904 1182T861 1170H657Z" />
<glyph unicode="\" glyph-name="backslash" d="M314 1346L989 -102Q999 -124 999 -134Q999 -150 987 -162T957 -175Q929 -175 912 -138L237 1311Q227 1332 227 1343Q227 1359 239 1371T269 1383Q296 1383 314 1346Z" />
<glyph unicode="]" glyph-name="bracketright" d="M575 -175V1170H372Q342 1170 329 1182T316 1212Q316 1231 329 1243T372 1255H660V-259H372Q342 -259 329 -248T316 -217Q316 -199 329 -187T372 -175H575Z" />
<glyph unicode="^" glyph-name="asciicircum" d="M614 1279L983 816Q1001 793 1001 779Q1001 761 989 749T958 737Q938 737 916 763L614 1147L312 763Q291 736 271 736Q253 736 241 748T228 779Q228 793 246 816L614 1279Z" />
<glyph unicode="_" glyph-name="underscore" d="M1173 -561H56Q26 -561 13 -550T0 -519Q0 -500 13 -489T56 -477H1173Q1204 -477 1216 -488T1229 -519Q1229 -538 1217 -549T1173 -561Z" />
<glyph unicode="`" glyph-name="grave" d="M525 1309L761 1105L783 1080Q786 1075 786 1064Q786 1046 774 1034T743 1021Q728 1021 705 1041L469 1245Q444 1267 444 1286Q444 1304 456 1316T487 1329Q502 1329 525 1309Z" />
<glyph unicode="a" glyph-name="a" d="M856 0V121Q673 -33 465 -33Q314 -33 229 43T144 231Q144 353 256 444T583 535Q641 535 709 528T856 504V640Q856 709 792 760T600 811Q502 811 325 754Q293 744 284 744Q268 744 257 756T245 786Q245 803 255 813Q269 828
368 854Q524 896 604 896Q763 896 852 818T941 640V84H1053Q1084 84 1097 73T1110 42Q1110 24 1097 12T1053 0H856ZM856 418Q797 435 731 443T592 451Q409 451 306 372Q228 313 228 231Q228 155 287 103T461 51Q570 51 663 94T856 233V418Z" />
<glyph unicode="b" glyph-name="b" d="M298 1255V698Q450 896 665 896Q849 896 980 763T1111 435Q1111 239 979 103T665 -33Q445 -33 298 165V0H101Q71 0 58 12T45 42Q45 61 58 72T101 84H214V1170H101Q71 1170 58 1182T45 1213Q45 1231 58 1243T101 1255H298ZM1027
431Q1027 590 918 700T663 811Q517 811 408 701T299 431Q299 272 408 162T663 51Q809 51 918 161T1027 431Z" />
<glyph unicode="c" glyph-name="c" d="M965 781V809Q965 840 977 853T1007 866Q1026 866 1038 853T1050 809V619Q1049 588 1038 575T1007 562Q990 562 979 573T965 612Q959 683 872 747T636 811Q449 811 352 694T255 426Q255 263 362 157T639 51Q737 51 838 87T1022
203Q1043 223 1059 223Q1076 223 1087 212T1099 183Q1099 140 998 74Q835 -33 635 -33Q432 -33 302 96T171 425Q171 628 304 762T641 896Q834 896 965 781Z" />
<glyph unicode="d" glyph-name="d" d="M1026 1255V84H1138Q1169 84 1182 73T1195 42Q1195 24 1182 12T1138 0H941V167Q795 -33 570 -33Q456 -33 352 27T187 200T126 431Q126 551 186 662T351 835T571 896Q791 896 941 696V1170H829Q798 1170 785 1182T772 1213Q772
1231 785 1243T829 1255H1026ZM941 431Q941 591 833 701T576 811Q426 811 318 701T210 431Q210 272 318 162T576 51Q725 51 833 161T941 431Z" />
<glyph unicode="e" glyph-name="e" d="M1069 413H213Q235 250 349 151T633 51Q727 51 830 82T998 164Q1017 179 1031 179Q1047 179 1059 167T1071 137Q1071 120 1055 104Q1007 54 885 11T633 -33Q417 -33 273 108T128 451Q128 634 263 765T599 896Q805 896 938
762T1069 413ZM984 498Q959 637 853 724T599 811Q452 811 346 725T214 498H984Z" />
<glyph unicode="f" glyph-name="f" d="M559 781V84H928Q958 84 971 73T984 42Q984 24 971 12T928 0H271Q241 0 228 12T215 42Q215 61 228 72T271 84H474V781H292Q262 781 249 793T236 824Q236 842 249 854T292 866H474V993Q474 1099 560 1177T788 1255Q907 1255
1042 1233Q1093 1225 1103 1214T1114 1185Q1114 1167 1102 1156T1070 1144Q1062 1144 1043 1147Q892 1170 788 1170Q678 1170 619 1116T559 993V866H952Q982 866 995 854T1008 823Q1008 805 995 793T952 781H559Z" />
<glyph unicode="g" glyph-name="g" d="M897 712V866H1094Q1124 866 1137 854T1150 823Q1150 805 1137 793T1094 781H981V-58Q981 -142 945 -208Q921 -252 865 -299T763 -366T640 -386H402Q372 -386 359 -375T346 -344Q346 -325 359 -313T402 -301L643 -302Q717
-302 776 -264T875 -153Q897 -111 897 -46V206Q762 21 549 21Q376 21 251 149T125 459Q125 640 250 768T549 896Q762 896 897 712ZM897 459Q897 607 796 709T553 811Q412 811 311 709T210 459Q210 311 311 209T553 106Q694 106 795 208T897 459Z" />
<glyph unicode="h" glyph-name="h" d="M338 1255V738Q418 825 491 860T656 896Q754 896 822 862T937 756T983 605V84H1077Q1108 84 1120 73T1133 42Q1133 24 1121 12T1077 0H804Q773 0 760 12T747 42Q747 61 760 72T804 84H898V599Q898 690 833 751T650 812Q558
812 493 767Q446 735 338 616V84H433Q463 84 476 73T489 42Q489 24 476 12T433 0H159Q129 0 116 12T103 42Q103 61 116 72T159 84H254V1170H141Q111 1170 98 1182T85 1213Q85 1231 98 1243T141 1255H338Z" />
<glyph unicode="i" glyph-name="i" d="M656 1297V1080H532V1297H656ZM659 866V84H989Q1020 84 1033 73T1046 42Q1046 24 1033 12T989 0H245Q215 0 202 12T189 42Q189 61 202 72T245 84H575V781H330Q300 781 287 793T273 823Q273 842 286 854T330 866H659Z" />
<glyph unicode="j" glyph-name="j" d="M735 1297V1080H611V1297H735ZM740 781H241Q211 781 198 793T185 824Q185 842 197 854T241 866H824V-59Q824 -166 780 -238T648 -355Q587 -386 503 -386H236Q206 -386 193 -375T180 -344Q180 -325 193 -313T236 -301L501
-302Q608 -302 674 -232T740 -59V781Z" />
<glyph unicode="k" glyph-name="k" d="M444 374V0H247Q217 0 204 12T191 42Q191 61 204 72T247 84H360V1170H247Q217 1170 204 1182T191 1213Q191 1231 204 1243T247 1255H444V481L801 781H758Q728 781 715 793T702 823Q702 842 715 854T758 866H1027Q1058 866
1071 854T1084 823Q1084 805 1071 793T1027 781H930L602 507L1017 84H1114Q1145 84 1158 73T1171 42Q1171 24 1158 12T1114 0H842Q812 0 799 12T786 42Q786 61 799 72T842 84H901L540 455L444 374Z" />
<glyph unicode="l" glyph-name="l" d="M657 1255V84H987Q1018 84 1031 73T1044 42Q1044 24 1031 12T987 0H243Q213 0 200 12T187 42Q187 61 200 72T243 84H573V1170H331Q301 1170 288 1182T274 1213Q274 1231 287 1243T331 1255H657Z" />
<glyph unicode="m" glyph-name="m" d="M232 866V781Q339 896 447 896Q512 896 561 862T643 757Q699 827 756 861T872 896Q963 896 1017 837Q1088 761 1088 671V84H1159Q1189 84 1202 73T1215 42Q1215 24 1202 12T1159 0H1004V663Q1004 727 965 769T875 811Q829
811 778 777T662 641V84H732Q762 84 775 73T788 42Q788 24 775 12T732 0H577V657Q577 724 538 767T449 811Q404 811 360 782Q299 741 232 641V84H303Q333 84 346 73T359 42Q359 24 346 12T303 0H77Q47 0 34 12T21 42Q21 61 34 72T77 84H148V781H77Q47 781 34 793T21
824Q21 842 34 854T77 866H232Z" />
<glyph unicode="n" glyph-name="n" d="M343 866V739Q431 828 502 862T662 896Q758 896 837 855Q893 825 938 756T984 613V84H1055Q1085 84 1098 73T1111 42Q1111 24 1098 12T1055 0H830Q799 0 786 12T773 42Q773 61 786 72T830 84H900V599Q900 688 835 749T661
811Q578 811 517 778T343 611V84H438Q468 84 481 73T494 42Q494 24 481 12T438 0H164Q134 0 121 12T108 42Q108 61 121 72T164 84H259V781H188Q158 781 145 793T132 824Q132 842 145 854T188 866H343Z" />
<glyph unicode="o" glyph-name="o" d="M1084 431Q1084 239 947 103T615 -33Q419 -33 282 103T145 431Q145 623 282 759T615 896Q809 896 946 760T1084 431ZM999 431Q999 589 887 700T614 811Q454 811 342 700T229 431Q229 275 341 163T614 51Q774 51 886 162T999 431Z" />
<glyph unicode="p" glyph-name="p" d="M298 866V713Q373 804 459 850T662 896Q786 896 891 838T1053 677T1111 459Q1111 278 982 150T663 21Q438 21 298 204V-302H502Q532 -302 545 -313T558 -344Q558 -362 545 -374T502 -386H101Q71 -386 58 -375T45 -344Q45
-325 58 -314T101 -302H214V781H101Q71 781 58 793T45 824Q45 842 58 854T101 866H298ZM1026 459Q1026 604 921 707T663 811Q510 811 404 707T298 459Q298 314 404 210T663 106Q814 106 920 209T1026 459Z" />
<glyph unicode="q" glyph-name="q" d="M940 713V866H1137Q1168 866 1181 854T1194 823Q1194 805 1181 793T1137 781H1025V-302H1137Q1168 -302 1181 -313T1194 -344Q1194 -362 1181 -374T1137 -386H737Q707 -386 694 -375T681 -344Q681 -325 694 -314T737 -302H940V204Q801
21 575 21Q387 21 258 149T128 459Q128 641 257 768T577 896Q801 896 940 713ZM940 459Q940 604 834 707T576 811Q424 811 318 708T212 459Q212 314 318 210T576 106Q728 106 834 210T940 459Z" />
<glyph unicode="r" glyph-name="r" d="M514 866V654Q678 802 759 844T910 887Q985 887 1049 837T1114 760Q1114 741 1102 729T1070 716Q1060 716 1053 719T1027 742Q992 777 966 790T915 803Q860 803 783 759T514 544V84H886Q917 84 930 73T943 42Q943 24 930
12T886 0H227Q197 0 184 11T171 41Q171 58 183 69T227 81H430V781H275Q245 781 232 793T219 824Q219 842 231 854T275 866H514Z" />
<glyph unicode="s" glyph-name="s" d="M892 811Q892 840 904 853T934 866Q953 866 965 853T977 809V665Q977 635 965 622T934 609Q917 609 906 620T892 656Q886 716 830 755Q748 811 613 811Q472 811 394 754Q335 711 335 658Q335 598 405 558Q453 530 587 515Q762
496 830 472Q927 437 974 375T1022 241Q1022 134 919 51T617 -33Q418 -33 291 68Q291 34 287 24T273 7T249 0Q231 0 219 13T207 56V229Q207 259 218 272T249 285Q267 285 279 273T292 239Q292 193 315 162Q350 114 426 83T614 51Q778 51 858 112T938 241Q938 319
857 366Q775 413 619 429T394 471T288 549T250 661Q250 769 356 832T609 896Q783 896 892 811Z" />
<glyph unicode="t" glyph-name="t" d="M442 866H898Q928 866 941 854T954 823Q954 805 941 793T898 781H442V222Q442 149 500 100T672 51Q757 51 856 76T1010 134Q1030 147 1043 147Q1059 147 1071 135T1083 105Q1083 90 1070 77Q1038 44 915 6T678 -33Q531 -33
444 36T357 222V781H202Q172 781 159 793T146 824Q146 842 159 854T202 866H357V1114Q357 1144 369 1157T399 1170Q418 1170 430 1157T442 1114V866Z" />
<glyph unicode="u" glyph-name="u" d="M902 0V123Q730 -33 530 -33Q407 -33 343 34Q260 122 260 239V781H147Q117 781 104 793T91 824Q91 842 104 854T147 866H344V239Q344 157 396 104T526 51Q731 51 902 239V781H747Q717 781 704 793T691 824Q691 842 704 854T747
866H986V84H1057Q1087 84 1100 73T1113 42Q1113 24 1100 12T1057 0H902Z" />
<glyph unicode="v" glyph-name="v" d="M688 0H546L201 781H115Q85 781 72 793T59 824Q59 842 72 854T115 866H430Q460 866 473 854T486 823Q486 805 473 793T430 781H291L599 84H636L938 781H798Q768 781 755 793T742 824Q742 842 755 854T798 866H1114Q1145 866
1157 854T1170 823Q1170 805 1158 793T1114 781H1029L688 0Z" />
<glyph unicode="w" glyph-name="w" d="M904 0L800 -1L615 539L431 -1L327 0L153 781H112Q82 781 69 793T56 824Q56 842 69 854T112 866H343Q373 866 386 854T399 823Q399 805 386 793T343 781H236L385 115L564 647H664L848 115L991 781H885Q855 781 842 793T828
824Q828 842 841 854T885 866H1115Q1146 866 1159 854T1172 823Q1172 805 1159 793T1115 781H1075L904 0Z" />
<glyph unicode="x" glyph-name="x" d="M672 453L1057 84Q1095 84 1105 81T1122 66T1130 42Q1130 24 1117 12T1073 0H803Q772 0 759 12T746 42Q746 61 759 72T803 84H942L615 397L290 84H430Q460 84 473 73T486 42Q486 24 473 12T430 0H157Q127 0 114 12T101 42Q101
55 108 66T125 80T173 84L558 453L216 781Q180 781 171 785T154 800T146 824Q146 842 159 854T203 866H432Q463 866 475 854T488 823Q488 805 476 793T432 781H332L615 508L900 781H800Q770 781 757 793T743 824Q743 842 756 854T800 866H1029Q1059 866 1072 854T1085
823Q1085 811 1078 800T1061 785T1015 781L672 453Z" />
<glyph unicode="y" glyph-name="y" d="M620 0L230 781H205Q175 781 162 793T149 823Q149 836 155 846T172 861T205 866H435Q465 866 478 854T491 823Q491 805 478 793T435 781H322L665 92L1003 781H890Q860 781 847 793T834 824Q834 842 847 854T890 866H1119Q1150
866 1163 854T1176 823Q1176 810 1168 799T1150 785T1094 781L562 -302H693Q723 -302 736 -313T749 -344Q749 -362 736 -374T693 -386H209Q179 -386 166 -375T153 -344Q153 -325 166 -314T209 -302H472L620 0Z" />
<glyph unicode="z" glyph-name="z" d="M982 866V791L353 84H921V200Q921 230 932 243T963 256Q982 256 994 243T1006 200L1005 0H237V75L863 781H341V667Q341 637 329 624T299 611Q280 611 268 624T256 667V866H982Z" />
<glyph unicode="{" glyph-name="braceleft" d="M566 498Q616 460 634 426Q657 381 657 319V-40Q657 -97 690 -133T772 -175Q803 -178 813 -187Q826 -199 826 -217Q826 -236 813 -247T775 -259Q696 -259 643 -209Q572 -140 572 -41V319Q572 374 539 411T455 453Q427
456 416 467T405 498Q405 517 416 528T455 542Q507 546 539 583T572 676V1036Q572 1130 632 1192T776 1255Q800 1255 813 1243T826 1213Q826 1195 813 1183Q804 1173 772 1170Q722 1165 690 1128T657 1036V676Q657 613 637 575T566 498Z" />
<glyph unicode="|" glyph-name="bar" d="M657 1198L656 -203Q656 -233 645 -246T614 -259Q596 -259 584 -246T572 -203V1198Q572 1229 584 1242T614 1255Q633 1255 645 1242T657 1198Z" />
<glyph unicode="}" glyph-name="braceright" d="M664 498Q613 536 596 570Q573 614 573 676V1036Q573 1092 540 1129T458 1170Q426 1173 417 1182Q404 1195 404 1213Q404 1231 416 1243T454 1255Q534 1255 586 1204Q657 1136 657 1036V676Q657 621 690 584T775
542Q802 539 813 528T825 498Q825 478 814 467T775 453Q723 449 690 412T657 319V-41Q657 -135 597 -197T454 -260Q429 -260 417 -248T404 -217Q404 -199 416 -187Q426 -178 458 -175Q508 -170 540 -133T573 -40V319Q573 382 593 421T664 498Z" />
<glyph unicode="~" glyph-name="asciitilde" d="M1003 668Q1019 668 1031 656T1043 628Q1043 593 956 513T796 432Q751 432 705 457T574 563Q517 617 488 634T434 651Q405 651 379 635Q344 615 283 544Q254 511 246 506T227 501Q210 501 199 512T187 541Q187 557
213 590Q279 672 331 703T432 735Q473 735 513 716T616 639Q717 546 741 532T790 517Q861 517 941 619Q970 656 980 662T1003 668Z" />
</font>
</defs>
</svg>
